<svg xmlns:xlink="http://www.w3.org/1999/xlink"  xmlns="http://www.w3.org/2000/svg" width="28" height="28" viewBox="0 0 28 28" fill="none"><g><path fill-rule="evenodd" clip-rule="evenodd" d="M27.6798 0.19744C27.7799 0.279578 27.8606 0.382939 27.916 0.500059C27.9714 0.617179 28.0001 0.745136 28 0.87469V25.3747C27.9999 25.5769 27.9297 25.7728 27.8015 25.9291C27.6732 26.0855 27.4948 26.1926 27.2965 26.2322L18.5465 27.9822C18.4333 28.0047 18.3167 28.0047 18.2035 27.9822L9.625 26.2672L1.0465 27.9822C0.919605 28.0076 0.788664 28.0045 0.663111 27.9731C0.537558 27.9418 0.420518 27.883 0.320424 27.801C0.22033 27.719 0.139673 27.6158 0.0842656 27.4988C0.0288578 27.3819 7.81423e-05 27.2541 0 27.1247L0 2.62469C0.000122119 2.42248 0.0702732 2.22656 0.198526 2.07023C0.326779 1.91391 0.505216 1.80682 0.7035 1.76719L9.4535 0.0171904C9.56671 -0.00543835 9.68329 -0.00543835 9.7965 0.0171904L18.375 1.73219L26.9535 0.0171904C27.0804 -0.00833188 27.2113 -0.00540323 27.3369 0.0257654C27.4624 0.0569341 27.5796 0.115567 27.6798 0.19744ZM17.5 3.34219L10.5 1.94219V24.6572L17.5 26.0572V3.34219ZM19.25 26.0572L26.25 24.6572V1.94219L19.25 3.34219V26.0572ZM8.75 24.6572V1.94219L1.75 3.34219V26.0572L8.75 24.6572Z" fill="#302F5B"></path></g><defs><clipPath><rect width="28" height="28" fill="white"></rect></clipPath></defs></svg>