<svg xmlns:xlink="http://www.w3.org/1999/xlink"  xmlns="http://www.w3.org/2000/svg" width="28" height="28" viewBox="0 0 28 28" fill="none"><g><path d="M19.25 1.75C19.7141 1.75 20.1592 1.93437 20.4874 2.26256C20.8156 2.59075 21 3.03587 21 3.5V24.5C21 24.9641 20.8156 25.4092 20.4874 25.7374C20.1592 26.0656 19.7141 26.25 19.25 26.25H8.75C8.28587 26.25 7.84075 26.0656 7.51256 25.7374C7.18437 25.4092 7 24.9641 7 24.5V3.5C7 3.03587 7.18437 2.59075 7.51256 2.26256C7.84075 1.93437 8.28587 1.75 8.75 1.75H19.25ZM8.75 0C7.82174 0 6.9315 0.368749 6.27513 1.02513C5.61875 1.6815 5.25 2.57174 5.25 3.5V24.5C5.25 25.4283 5.61875 26.3185 6.27513 26.9749C6.9315 27.6313 7.82174 28 8.75 28H19.25C20.1783 28 21.0685 27.6313 21.7249 26.9749C22.3813 26.3185 22.75 25.4283 22.75 24.5V3.5C22.75 2.57174 22.3813 1.6815 21.7249 1.02513C21.0685 0.368749 20.1783 0 19.25 0L8.75 0Z" fill="#302F5B"></path><path d="M14 24.5C14.4641 24.5 14.9092 24.3156 15.2374 23.9874C15.5656 23.6592 15.75 23.2141 15.75 22.75C15.75 22.2859 15.5656 21.8408 15.2374 21.5126C14.9092 21.1844 14.4641 21 14 21C13.5359 21 13.0908 21.1844 12.7626 21.5126C12.4344 21.8408 12.25 22.2859 12.25 22.75C12.25 23.2141 12.4344 23.6592 12.7626 23.9874C13.0908 24.3156 13.5359 24.5 14 24.5Z" fill="#302F5B"></path></g><defs><clipPath><rect width="28" height="28" fill="white"></rect></clipPath></defs></svg>