<svg xmlns:xlink="http://www.w3.org/1999/xlink"  xmlns="http://www.w3.org/2000/svg" width="71" height="72" viewBox="0 0 71 72" fill="none"><g clip-path="url(#clip0_741_5916)"><path d="M70.8923 57.1292C70.8925 57.5524 70.8092 57.9715 70.6473 58.3625C70.4854 58.7535 70.2481 59.1088 69.9489 59.408C69.6496 59.7073 69.2943 59.9446 68.9033 60.1065C68.5123 60.2684 68.0932 60.3516 67.67 60.3515H3.22228C2.79908 60.3516 2.38 60.2684 1.98899 60.1065C1.59798 59.9446 1.2427 59.7073 0.94346 59.408C0.644215 59.1088 0.406868 58.7535 0.244985 58.3625C0.0831017 57.9715 -0.000145363 57.5524 1.9054e-07 57.1292V12.0162C-0.000145363 11.593 0.0831017 11.174 0.244985 10.7829C0.406868 10.3919 0.644215 10.0366 0.94346 9.7374C1.2427 9.43816 1.59798 9.20082 1.98899 9.03893C2.38 8.87705 2.79908 8.7938 3.22228 8.79395H67.67C68.0932 8.7938 68.5123 8.87705 68.9033 9.03893C69.2943 9.20082 69.6496 9.43816 69.9489 9.7374C70.2481 10.0366 70.4854 10.3919 70.6473 10.7829C70.8092 11.174 70.8925 11.593 70.8923 12.0162V57.1292Z" fill="white"></path><path d="M25.7793 60.3525H45.1141V68.6104H25.7793V60.3525Z" fill="#302F5B"></path><path d="M51.5574 70.2208C51.5574 71.1103 50.8363 71.8325 49.9457 71.8325H20.9452C20.5177 71.8325 20.1078 71.6627 19.8056 71.3605C19.5033 71.0582 19.3335 70.6483 19.3335 70.2208C19.3335 69.7934 19.5033 69.3834 19.8056 69.0812C20.1078 68.7789 20.5177 68.6091 20.9452 68.6091H49.9468C50.8363 68.6091 51.5574 69.3302 51.5574 70.2208Z" fill="#302F5B"></path><path d="M70.8923 57.1292V47.4624H0V57.1292C0.000293596 57.9837 0.339878 58.8032 0.944108 59.4074C1.54834 60.0116 2.36777 60.3512 3.22228 60.3515H67.67C68.0932 60.3517 68.5123 60.2684 68.9033 60.1065C69.2943 59.9446 69.6496 59.7073 69.9489 59.408C70.2481 59.1088 70.4854 58.7535 70.6473 58.3625C70.8092 57.9715 70.8925 57.5524 70.8923 57.1292Z" fill="#302F5B"></path><path d="M35.4462 58.4385C34.2982 58.4373 33.1975 57.9808 32.3857 57.169C31.574 56.3572 31.1174 55.2565 31.1162 54.1085C31.1162 51.7203 33.0591 49.7786 35.4462 49.7786C37.8333 49.7786 39.7762 51.7203 39.7762 54.1085C39.775 55.2565 39.3184 56.3572 38.5066 57.169C37.6949 57.9808 36.5942 58.4373 35.4462 58.4385ZM35.4462 51.9939C34.8854 51.9942 34.3478 52.2171 33.9513 52.6136C33.5548 53.0101 33.3319 53.5478 33.3316 54.1085C33.3316 55.2738 34.2798 56.2231 35.4462 56.2231C36.6126 56.2231 37.5608 55.2749 37.5608 54.1085C37.5602 53.5479 37.3372 53.0104 36.9408 52.6139C36.5443 52.2175 36.0068 51.9945 35.4462 51.9939Z" fill="#CECECE"></path><path d="M0 12.0162V47.4624H21.8481L60.5166 8.79395H3.22228C2.36777 8.79424 1.54834 9.13382 0.944108 9.73805C0.339878 10.3423 0.000293596 11.1617 0 12.0162Z" fill="white"></path><path d="M35.7231 36.3463C45.5113 36.3463 53.4462 28.4114 53.4462 18.6232C53.4462 8.83504 45.5113 0.900146 35.7231 0.900146C25.9349 0.900146 18 8.83504 18 18.6232C18 28.4114 25.9349 36.3463 35.7231 36.3463Z" fill="#F2F2F2"></path><path d="M44.75 19.6463C44.6563 19.4207 44.4979 19.2278 44.2948 19.092C44.0916 18.9563 43.8528 18.8837 43.6085 18.8835H40.4137V10.2352C40.4137 9.55293 39.8607 9 39.1785 9H31.7663C31.0841 9 30.5311 9.55293 30.5311 10.2352V18.8835H27.3363C27.0918 18.8833 26.8527 18.9556 26.6494 19.0914C26.4461 19.2272 26.2876 19.4202 26.1941 19.6461C26.1005 19.8721 26.0761 20.1206 26.124 20.3604C26.1718 20.6002 26.2898 20.8204 26.4629 20.9931L34.5751 28.4202C34.6898 28.5349 34.8259 28.6259 34.9758 28.688C35.1257 28.75 35.2863 28.782 35.4485 28.782C35.6107 28.782 35.7714 28.75 35.9212 28.688C36.0711 28.6259 36.2073 28.5349 36.322 28.4202L44.4829 20.9931C44.6554 20.82 44.7729 20.5998 44.8204 20.3601C44.868 20.1205 44.8435 19.8721 44.75 19.6463Z" fill="#FF7F72"></path></g><defs><clipPath id="clip0_741_5916"><rect width="70.8923" height="72" fill="white"></rect></clipPath></defs></svg>