<svg xmlns:xlink="http://www.w3.org/1999/xlink"  xmlns="http://www.w3.org/2000/svg" width="77" height="70" viewBox="0 0 77 70" fill="none"><path d="M44.0267 58.6975L40.3562 58.7659L25.7206 68.468C25.6706 68.504 25.6013 68.468 25.6013 68.4066V58.6589H18.4524C13.2777 58.6589 9.08447 54.4648 9.08447 49.291V22.709C9.08447 17.5352 13.2777 13.3411 18.4524 13.3411H58.1527C63.3265 13.3411 67.5206 17.5352 67.5206 22.709V49.291C67.5206 54.4648 63.3265 58.6589 58.1527 58.6589L54.3252 58.6975H44.0267Z" fill="white" stroke="#302F5B" stroke-width="1.5" stroke-miterlimit="10"></path><path d="M27.544 32.803C30.5152 32.803 32.9239 30.3944 32.9239 27.4231C32.9239 24.4519 30.5152 22.0432 27.544 22.0432C24.5727 22.0432 22.1641 24.4519 22.1641 27.4231C22.1641 30.3944 24.5727 32.803 27.544 32.803Z" stroke="#302F5B" stroke-width="1.5" stroke-miterlimit="10"></path><path d="M49.1197 32.803C52.0909 32.803 54.4996 30.3944 54.4996 27.4231C54.4996 24.4519 52.0909 22.0432 49.1197 22.0432C46.1484 22.0432 43.7397 24.4519 43.7397 27.4231C43.7397 30.3944 46.1484 32.803 49.1197 32.803Z" stroke="#302F5B" stroke-width="1.5" stroke-miterlimit="10"></path><path d="M67.7022 43.7585V28.7327H71.7787C73.4794 28.7327 74.8581 30.1114 74.8581 31.812V40.68C74.8581 42.3807 73.4794 43.7594 71.7787 43.7594H67.7022V43.7585ZM1.74609 40.68V31.812C1.74609 30.1114 3.12484 28.7327 4.82546 28.7327H8.90206V43.7594H4.82546C3.12484 43.7585 1.74609 42.3798 1.74609 40.68ZM49.6916 41.2931C48.94 46.6879 44.032 50.8531 38.0863 50.8531C32.1425 50.8531 27.2327 46.6879 26.481 41.2931H49.6916Z" fill="white" stroke="#302F5B" stroke-width="1.5" stroke-miterlimit="10"></path><path d="M38.0861 8.8739C40.1176 8.8739 41.7645 7.22702 41.7645 5.19549C41.7645 3.16397 40.1176 1.51709 38.0861 1.51709C36.0546 1.51709 34.4077 3.16397 34.4077 5.19549C34.4077 7.22702 36.0546 8.8739 38.0861 8.8739Z" fill="white" stroke="#302F5B" stroke-width="1.5" stroke-miterlimit="10"></path><path d="M38.0859 13.4942V8.87378" stroke="#302F5B" stroke-width="1.5" stroke-miterlimit="10"></path></svg>