<svg xmlns:xlink="http://www.w3.org/1999/xlink"  xmlns="http://www.w3.org/2000/svg" width="68" height="68" viewBox="0 0 68 68" fill="none"><g clip-path="url(#clip0_741_5938)"><rect width="68" height="68" fill="white"></rect><path fill-rule="evenodd" clip-rule="evenodd" d="M6.98084 1.57664C4.22111 1.57664 1.97608 3.82175 1.97608 6.58143L1.97612 61.4147C1.97612 64.1743 4.22105 66.4195 6.98079 66.4195H61.0171C63.7756 66.4195 66.0205 64.1745 66.0205 61.4148L66.0206 6.58137C66.0206 3.82177 63.7755 1.57674 61.0171 1.57674L6.98084 1.57664ZM61.0172 67.9755H6.98084C3.36344 67.9755 0.419922 65.0323 0.419922 61.4148L0.420009 6.58138C0.420009 2.96399 3.36331 0.0205952 6.98079 0.0205952L61.0171 0.0205078C64.6346 0.0205078 67.5766 2.96403 67.5766 6.58147L67.5767 61.4147C67.5767 65.0323 64.6347 67.9756 61.0172 67.9755Z" fill="#302F5B"></path><path fill-rule="evenodd" clip-rule="evenodd" d="M66.7982 14.0189H1.19758C0.767962 14.0189 0.419434 13.6704 0.419434 13.2409C0.419521 12.8113 0.767962 12.4628 1.19749 12.4628L66.7982 12.4628C67.2291 12.4628 67.5762 12.8113 67.5762 13.2409C67.5763 13.6703 67.229 14.0189 66.7982 14.0189ZM9.65776 8.09696H14.6193V5.94239H9.65776V8.09696ZM15.3973 9.65307H8.87966C8.45009 9.65307 8.10156 9.30463 8.10156 8.8751L8.10161 5.16433C8.10161 4.73472 8.45009 4.38632 8.87962 4.38632L15.3974 4.38623C15.827 4.38623 16.1753 4.73485 16.1753 5.16437L16.1754 8.87501C16.1754 9.30462 15.8268 9.65311 15.3973 9.65307ZM20.5075 8.09696H25.4676V5.94239H20.5075V8.09696ZM26.2457 9.65307H19.7294C19.2984 9.65307 18.9512 9.30463 18.9512 8.8751L18.9513 5.16433C18.9513 4.73472 19.2984 4.38632 19.7293 4.38632L26.2457 4.38623C26.6751 4.38623 27.0236 4.73485 27.0236 5.16437L27.0238 8.87501C27.0238 9.30462 26.6751 9.65311 26.2457 9.65307ZM31.3557 8.09696H36.3159V5.94239H31.3557V8.09696ZM37.094 9.65307H30.5777C30.1482 9.65307 29.7996 9.30463 29.7996 8.8751L29.7996 5.16433C29.7996 4.73472 30.1481 4.38632 30.5776 4.38632L37.094 4.38623C37.5236 4.38623 37.872 4.73485 37.872 5.16437V8.87501C37.872 9.30462 37.5235 9.65311 37.094 9.65307ZM16.621 57.5959H39.52V34.6985H16.621V57.5959ZM40.2981 59.152H15.843C15.4135 59.152 15.0649 58.8036 15.0649 58.3741V33.9204C15.0649 33.4908 15.4134 33.1423 15.843 33.1423H40.2981C40.7275 33.1423 41.0761 33.4908 41.0761 33.9204L41.0762 58.374C41.0762 58.8036 40.7275 59.1521 40.2981 59.152Z" fill="#302F5B"></path><path fill-rule="evenodd" clip-rule="evenodd" d="M46.2255 53.2249H40.2982C39.8672 53.2249 39.52 52.8764 39.52 52.4468C39.5201 52.0158 39.8672 51.6688 40.2981 51.6688L45.4474 51.6687V28.7698H22.5499V33.9205C22.5499 34.35 22.2012 34.6986 21.7717 34.6986C21.3409 34.6986 20.9937 34.3501 20.9937 33.9205L20.9938 27.9917C20.9938 27.5622 21.3408 27.2138 21.7717 27.2138L46.2254 27.2136C46.655 27.2136 47.0034 27.5623 47.0034 27.9918L47.0034 52.4468C47.0034 52.8764 46.655 53.2249 46.2255 53.2249Z" fill="#FF7F72"></path><path fill-rule="evenodd" clip-rule="evenodd" d="M52.1542 47.2961H46.2255C45.7958 47.2961 45.4473 46.9476 45.4473 46.5181C45.4474 46.0885 45.7958 45.74 46.2254 45.74L51.3761 45.7399V22.8411H28.4772V27.9917C28.4772 28.4213 28.1286 28.7698 27.6991 28.7698C27.2695 28.7698 26.921 28.4214 26.921 27.9918L26.9211 22.063C26.9211 21.6334 27.2695 21.285 27.6991 21.285L52.1542 21.2849C52.5836 21.2849 52.9321 21.6336 52.9321 22.0631L52.9322 46.518C52.9322 46.9476 52.5836 47.2961 52.1542 47.2961ZM9.4051 31.0851C8.97552 31.0851 8.62695 30.7366 8.62695 30.307L8.62704 22.063C8.62704 21.6334 8.97548 21.285 9.40501 21.285L17.6491 21.2849C18.0786 21.2849 18.4271 21.6335 18.4271 22.0631C18.4271 22.4926 18.0786 22.8411 17.649 22.8411L10.1832 22.8411V30.307C10.1832 30.7366 9.83458 31.0851 9.4051 31.0851ZM58.5921 59.1522H50.3481C49.9185 59.1522 49.57 58.8038 49.57 58.3742C49.57 57.9447 49.9185 57.5962 50.348 57.5962L57.814 57.596V50.1301C57.814 49.7006 58.1625 49.3522 58.592 49.3522C59.0217 49.3521 59.3701 49.7007 59.3701 50.1303L59.3702 58.3741C59.3702 58.8037 59.0216 59.1523 58.5921 59.1522Z" fill="#302F5B"></path></g><defs><clipPath id="clip0_741_5938"><rect width="68" height="68" fill="white"></rect></clipPath></defs></svg>