<svg xmlns:xlink="http://www.w3.org/1999/xlink"  xmlns="http://www.w3.org/2000/svg" width="72" height="62" viewBox="0 0 72 62" fill="none"><g clip-path="url(#clip0_741_5960)"><path d="M49.3359 21.2305L49.2961 28.4023L49.1367 52.3086H16.8633L8.49609 60.6758V52.3086H1.32422L1.52344 21.2305H49.3359Z" fill="white" stroke="#FF7F72" stroke-width="1.5" stroke-miterlimit="10" stroke-linecap="round" stroke-linejoin="round"></path><path d="M13.3838 40.3555C15.3642 40.3555 16.9697 38.75 16.9697 36.7695C16.9697 34.7891 15.3642 33.1836 13.3838 33.1836C11.4033 33.1836 9.79785 34.7891 9.79785 36.7695C9.79785 38.75 11.4033 40.3555 13.3838 40.3555Z" stroke="#302F5B" stroke-width="1.5" stroke-miterlimit="10" stroke-linecap="round" stroke-linejoin="round"></path><path d="M37.29 40.3555C39.2705 40.3555 40.876 38.75 40.876 36.7695C40.876 34.7891 39.2705 33.1836 37.29 33.1836C35.3096 33.1836 33.7041 34.7891 33.7041 36.7695C33.7041 38.75 35.3096 40.3555 37.29 40.3555Z" stroke="#302F5B" stroke-width="1.5" stroke-miterlimit="10" stroke-linecap="round" stroke-linejoin="round"></path><path d="M25.3369 40.3555C27.3174 40.3555 28.9229 38.75 28.9229 36.7695C28.9229 34.7891 27.3174 33.1836 25.3369 33.1836C23.3565 33.1836 21.751 34.7891 21.751 36.7695C21.751 38.75 23.3565 40.3555 25.3369 40.3555Z" stroke="#302F5B" stroke-width="1.5" stroke-miterlimit="10" stroke-linecap="round" stroke-linejoin="round"></path><path d="M30.3846 1.23047L30.4183 7.23047L30.5532 27.2305H57.8548L64.933 34.2305V27.2305H71L70.8315 1.23047H30.3846Z" fill="white" stroke="#302F5B" stroke-width="1.5" stroke-miterlimit="10" stroke-linecap="round" stroke-linejoin="round"></path><path d="M35 8.30078H63.86" stroke="#464668" stroke-width="1.5" stroke-miterlimit="10" stroke-linecap="round" stroke-linejoin="round"></path><path d="M35 14.2773H59" stroke="#464668" stroke-width="1.5" stroke-miterlimit="10" stroke-linecap="round" stroke-linejoin="round"></path><path d="M35 20.2539H55" stroke="#464668" stroke-width="1.5" stroke-miterlimit="10" stroke-linecap="round" stroke-linejoin="round"></path></g><defs><clipPath id="clip0_741_5960"><rect width="72" height="62" fill="white"></rect></clipPath></defs></svg>